<?xml version="1.0" encoding="utf-8"?>
<!-- Generator: Adobe Illustrator 23.0.1, SVG Export Plug-In . SVG Version: 6.00 Build 0)  -->
<svg version="1.1" id="Modo_de_isolamento" xmlns="http://www.w3.org/2000/svg" xmlns:xlink="http://www.w3.org/1999/xlink" x="0px"
	 y="0px" viewBox="0 0 600 500" style="enable-background:new 0 0 600 500;" xml:space="preserve">
<style type="text/css">
	.st0{fill:url(#SVGID_1_);}
	.st1{fill:url(#SVGID_2_);}
	.st2{fill:none;stroke:url(#SVGID_3_);stroke-width:1.9922;stroke-linecap:round;stroke-linejoin:round;stroke-miterlimit:10;}
	.st3{fill:none;stroke:url(#SVGID_4_);stroke-width:0.6641;stroke-linecap:round;stroke-linejoin:round;stroke-miterlimit:10;}
	.st4{fill:url(#SVGID_5_);}
	.st5{fill:#F8F5F1;}
	.st6{fill:url(#SVGID_6_);}
	.st7{fill:url(#SVGID_7_);}
	.st8{fill:url(#SVGID_8_);}
	.st9{fill:url(#SVGID_9_);}
	.st10{fill:none;stroke:url(#SVGID_10_);stroke-width:1.9922;stroke-linecap:round;stroke-linejoin:round;stroke-miterlimit:10;}
	.st11{fill:none;stroke:url(#SVGID_11_);stroke-width:0.6641;stroke-linecap:round;stroke-linejoin:round;stroke-miterlimit:10;}
	.st12{fill:url(#SVGID_12_);}
	.st13{fill:url(#SVGID_13_);}
	.st14{fill:url(#SVGID_14_);}
	.st15{fill:#176A88;}
	.st16{font-family:'HoneyFloristPersonalUse';}
	.st17{font-size:71.209px;}
</style>
<g>
	<g id="XMLID_42_">
		
			<linearGradient id="SVGID_1_" gradientUnits="userSpaceOnUse" x1="-647.3649" y1="0.045" x2="-594.2543" y2="0.045" gradientTransform="matrix(0.2962 0.9551 -0.9551 0.2962 528.3859 896.4437)">
			<stop  offset="0" style="stop-color:#648095"/>
			<stop  offset="0.9946" style="stop-color:#C0D6EE"/>
		</linearGradient>
		<path class="st0" d="M392.03,316.57c0,0-0.01,0-0.02,0c-5.23,1.53-28.68,4.95-51.74-4.41c-15.11-6.13-27.84-16.73-43.39-21.69
			c16.14-4.27,31.57-6.4,51.16,2.29C366.2,300.81,377.92,307.64,392.03,316.57z"/>
	</g>
	<g id="XMLID_56_">
		
			<linearGradient id="SVGID_2_" gradientUnits="userSpaceOnUse" x1="-696.5973" y1="147.9842" x2="-657.2993" y2="147.9842" gradientTransform="matrix(0.2962 0.9551 -0.9551 0.2962 528.3859 896.4437)">
			<stop  offset="0" style="stop-color:#648095"/>
			<stop  offset="0.9946" style="stop-color:#C0D6EE"/>
		</linearGradient>
		<path class="st1" d="M221.73,303.38c0,0-0.01,0-0.01,0c-3.87,1.13-21.22,3.66-38.28-3.26c-11.18-4.53-20.6-12.38-32.1-16.05
			c11.95-3.16,23.36-4.74,37.85,1.69C202.62,291.72,211.29,296.77,221.73,303.38z"/>
	</g>
	<linearGradient id="SVGID_3_" gradientUnits="userSpaceOnUse" x1="94.733" y1="287.5183" x2="502.6046" y2="287.5183">
		<stop  offset="0" style="stop-color:#BF8D5B"/>
		<stop  offset="0.1872" style="stop-color:#967039"/>
		<stop  offset="0.3691" style="stop-color:#C6985B"/>
		<stop  offset="0.5389" style="stop-color:#EDB876"/>
		<stop  offset="0.6275" style="stop-color:#FCC480"/>
		<stop  offset="0.7099" style="stop-color:#EBB674"/>
		<stop  offset="0.8734" style="stop-color:#BD9054"/>
		<stop  offset="1" style="stop-color:#967039"/>
	</linearGradient>
	<line class="st2" x1="95.73" y1="287.52" x2="501.61" y2="287.52"/>
	<linearGradient id="SVGID_4_" gradientUnits="userSpaceOnUse" x1="94.946" y1="285.0114" x2="501.4894" y2="285.0114">
		<stop  offset="0" style="stop-color:#BF8D5B"/>
		<stop  offset="0.1872" style="stop-color:#967039"/>
		<stop  offset="0.3691" style="stop-color:#C6985B"/>
		<stop  offset="0.5389" style="stop-color:#EDB876"/>
		<stop  offset="0.6275" style="stop-color:#FCC480"/>
		<stop  offset="0.7099" style="stop-color:#EBB674"/>
		<stop  offset="0.8734" style="stop-color:#BD9054"/>
		<stop  offset="1" style="stop-color:#967039"/>
	</linearGradient>
	<line class="st3" x1="95.28" y1="285.01" x2="501.16" y2="285.01"/>
	<g>
		
			<linearGradient id="SVGID_5_" gradientUnits="userSpaceOnUse" x1="450.4711" y1="416.5831" x2="428.3891" y2="314.9669" gradientTransform="matrix(0.2311 -0.9729 -0.9729 -0.2311 629.1106 790.5499)">
			<stop  offset="0" style="stop-color:#BF8D5B"/>
			<stop  offset="0.1872" style="stop-color:#967039"/>
			<stop  offset="0.3691" style="stop-color:#C6985B"/>
			<stop  offset="0.5389" style="stop-color:#EDB876"/>
			<stop  offset="0.6275" style="stop-color:#FCC480"/>
			<stop  offset="0.7099" style="stop-color:#EBB674"/>
			<stop  offset="0.8734" style="stop-color:#BD9054"/>
			<stop  offset="1" style="stop-color:#967039"/>
		</linearGradient>
		<path class="st4" d="M437.33,276.13c-9.62,0.66-19.2,0.23-28.76-1c-8.05-1.03-16-2.02-24.09-1.59
			c-16.44,0.77-33.46,5.42-47.94,13.22c-0.1,0.06-6.78,1.6-8.28,2.83h3.71c2.07-0.84,5.54-1.03,5.87-1.01
			c13.14,0.8,25.52,6.05,38.87,5.86c21.82-0.31,40.57-9.11,60.71-16.56c0.57-0.26,2.66-1.07,2.48-1.51
			C439.76,275.94,437.85,276.11,437.33,276.13z"/>
		<path class="st5" d="M406.61,287.07c-11.04,3.83-21.73,5.19-33.39,5.22c-10.21,0.03-20.02-3.78-30.08-5.11
			c7.73-1.31,15.54-2.2,23.37-2.52c9.31-0.43,18.96-0.09,28.22-0.8c0.95-0.09,2.12-0.68-0.33-0.8c-17.03-0.78-34.55-0.08-51.6,2.73
			c14.04-5.71,28.28-10.11,43.7-10.53c9.23-0.25,18.2,1.53,27.37,2.43c5.67,0.55,11.37,0.75,17.06,0.61
			C422.85,281.29,414.74,284.26,406.61,287.07z"/>
	</g>
	<g>
		
			<linearGradient id="SVGID_6_" gradientUnits="userSpaceOnUse" x1="-24.5034" y1="147.403" x2="-38.9154" y2="81.0821" gradientTransform="matrix(0.682 0.7314 -0.7314 0.682 453.1594 249.0923)">
			<stop  offset="0" style="stop-color:#BF8D5B"/>
			<stop  offset="0.1872" style="stop-color:#967039"/>
			<stop  offset="0.3691" style="stop-color:#C6985B"/>
			<stop  offset="0.5389" style="stop-color:#EDB876"/>
			<stop  offset="0.6275" style="stop-color:#FCC480"/>
			<stop  offset="0.7099" style="stop-color:#EBB674"/>
			<stop  offset="0.8734" style="stop-color:#BD9054"/>
			<stop  offset="1" style="stop-color:#967039"/>
		</linearGradient>
		<path class="st6" d="M415.78,304.99c-0.03-0.39-1.68-0.71-2.13-0.82c-8.25-1.72-16.24-4.38-24.02-7.68
			c-6.55-2.78-13.01-5.49-19.96-7.06c-14.04-3.24-29.5-3.37-43.58-0.23c-0.1,0.02-0.18,0.05-0.24,0.11
			c-9.29-0.76-18.93-0.63-28.14,0.29h-8.53c2.18,1.14,5.58,1.37,7.47,1.88c4.06,8.14,11,14.73,18.95,19.06
			c4.03,2.2,8.36,3.79,12.88,4.73c6.13,1.28,12.45,1.5,18.42,3.67c0.87,0.33,2.33,0.75,2.47,0.62c0.17-0.23-1.34-1.48-1.84-1.85
			c-8.83-6.66-17.23-14.24-26.53-20.23c-5.25-3.39-10.99-5.51-17-6.71c7.17-0.54,14.39-0.62,21.7-0.15c0.06,0.06,0.13,0.1,0.21,0.14
			c11.27,3.7,20.63,11.37,32.24,14.45c18.5,4.93,36.41,1.94,55.17,0.43C413.87,305.59,415.82,305.4,415.78,304.99z"/>
		<path class="st5" d="M322.69,300.79c6.52,4.67,12.81,9.66,19.14,14.62c-7.44-1.87-15.32-2.01-22.46-5.27
			c-8.92-4.07-15.64-10.79-20.9-18.87l0.14-0.01C307.4,292.57,315.41,295.59,322.69,300.79z"/>
		<path class="st5" d="M385.14,306.1c-10.22,0.61-19.57-0.78-29.41-3.52c-8.62-2.4-15.99-7.95-24.17-11.46
			c6.83,0.73,13.63,1.83,20.32,3.42c7.95,1.85,16.02,4.43,24,6.03c0.82,0.15,1.95-0.07-0.09-0.75c-14.18-4.7-29.13-8.27-44.18-9.95
			c13.2-1.48,26.26-1.81,39.37,1.49c7.85,1.98,15,5.61,22.52,8.55c4.65,1.81,9.41,3.34,14.25,4.57
			C400.21,305.07,392.66,305.65,385.14,306.1z"/>
	</g>
	<path class="st5" d="M225.62,293.46c-2.83-0.91-7.61-2.72-10.62-3.86h-8.74c4.12,1.02,15.99,5.01,18.69,5.88
		c2.46,0.81,5.47,1.68,8.43,2.44c1.01,0.26,1.93,0.64,2.76,1.13c0.4,0.32,0.69,0.71,0.83,0.96c0.18,0.36,0.21,0.71,0.21,0.73
		l0.04,0.31c0.2,1.41,1.01,2.98,2.45,4.68c0.7,0.79,1.46,1.51,2.21,2.18c0.65,0.56,1.33,1.19,1.9,1.82
		c1.23,1.37,2.18,3.05,3.09,4.68c0.31,0.53,0.59,1.06,0.9,1.58c1.89,3.22,3.93,5.7,6.2,7.57c2.82,2.31,5.98,3.66,9.16,3.88
		c3.24,0.22,6.43-0.72,9.12-1.67c2.35-0.84,4.71-1.82,6.96-2.9c0.2-0.09,0.65-0.3,0.89-0.84c0.2-0.49,0.08-0.94,0.03-1.17
		c-0.44-1.46-0.98-2.88-1.59-4.25c3.25-0.94,6.35-2.29,9.23-4.03c0.23-0.14,0.76-0.47,0.94-1.1c0.17-0.72-0.16-1.27-0.32-1.52
		l-2.77-4.55c-0.19-0.29-0.38-0.58-0.55-0.87c0.89-0.15,1.78-0.25,2.64-0.27c0.35-0.03,0.7-0.25,0.87-0.57
		c0.19-0.32,0.19-0.72,0-1.06c-0.33-0.52-0.62-1.07-0.93-1.62c-1.05-1.9-2.15-3.84-3.71-5.48c-1.41-1.47-3.19-2.53-4.94-2.96
		c1.29-0.9,2.54-1.62,3.93-1.93c0.33-0.07,0.61-0.32,0.73-0.63c0.15-0.32,0.12-0.67-0.07-0.96c-1.38-2.3-3.89-3.91-7.6-4.93
		c-6.41-1.76-13.32-1.31-19.46,1.28c-3.69,1.55-7,3.84-10.18,6.02l-4.53,3.11c-0.3,0.23-0.6,0.42-0.88,0.65
		c-0.73,0.55-1.63,0.88-2.55,0.91c-0.34,0.01-0.67,0.01-1.01,0.04c-1.15,0.1-2.32-0.01-3.46-0.29
		C231.03,295.1,228.06,294.25,225.62,293.46z"/>
	
		<linearGradient id="SVGID_7_" gradientUnits="userSpaceOnUse" x1="164.1997" y1="260.9965" x2="125.5067" y2="184.4861" gradientTransform="matrix(-0.1395 -0.9902 -0.9902 0.1395 493.0542 412.4966)">
		<stop  offset="0" style="stop-color:#BF8D5B"/>
		<stop  offset="0.1872" style="stop-color:#967039"/>
		<stop  offset="0.3691" style="stop-color:#C6985B"/>
		<stop  offset="0.5389" style="stop-color:#EDB876"/>
		<stop  offset="0.6275" style="stop-color:#FCC480"/>
		<stop  offset="0.7099" style="stop-color:#EBB674"/>
		<stop  offset="0.8734" style="stop-color:#BD9054"/>
		<stop  offset="1" style="stop-color:#967039"/>
	</linearGradient>
	<path class="st7" d="M275.47,286.21c2.49,0.68,4.3,1.63,5.5,2.87c-1.67,0.68-3.12,1.74-4.54,2.78c-0.65,0.47-1.23,0.91-1.82,1.29
		c-3.09,2.04-6.67,3.26-10.36,3.52c-1.9,0.13-3.86,0.01-5.75-0.1c-1.25-0.08-2.45-0.15-3.64-0.16c-2.81-0.04-7.02-0.09-9.92,2.21
		c-0.16-0.08-0.31-0.17-0.47-0.25c-0.24-0.13-0.46-0.25-0.68-0.36c0.99-0.44,2.07-0.75,3.11-1.06c0.84-0.25,1.61-0.48,2.34-0.75
		c1.71-0.62,3.32-1.48,4.88-2.31l0.2-0.11c0.67-0.35,1.33-0.71,2.01-1.04c6.38-3.15,12.96-4.21,18.53-2.98
		c1.85,0.41,2.05,0.28,2.23,0.16l0.19-0.13l0.06-0.25c0.01-0.03,0.01-0.06,0.01-0.1c0.03-0.3-0.11-0.72-2.14-1.15
		c-6.18-1.37-13.17-0.35-19.66,2.85c-0.69,0.34-1.38,0.71-2.06,1.07l-0.19,0.1c-1.51,0.8-3.06,1.63-4.66,2.21
		c-0.73,0.26-1.49,0.49-2.24,0.71c-1.15,0.34-2.4,0.71-3.59,1.27c0.09-0.06,0.17-0.12,0.26-0.18l4.5-3.09
		c3.12-2.15,6.33-4.35,9.82-5.83C263.09,285,269.51,284.58,275.47,286.21z M282.44,297.04c1.38,1.43,2.4,3.27,3.38,5.04l0.11,0.2
		c-0.68,0.08-1.38,0.19-2.09,0.33c-1.13-1.69-2.19-2.98-3.3-4.06c-1.31-1.27-3-2.74-4.98-3.47c0.07-0.05,0.15-0.1,0.22-0.14
		l0.39-0.27C278.49,294.02,280.99,295.53,282.44,297.04z M271.55,323.77c-2.47,0.88-5.39,1.75-8.24,1.55
		c-2.7-0.19-5.54-1.41-7.97-3.41c-2.08-1.71-3.95-4-5.72-7.01c-0.26-0.45-0.52-0.9-0.77-1.36l-0.1-0.18
		c-0.97-1.74-1.98-3.53-3.37-5.07c-0.63-0.7-1.32-1.32-1.99-1.92c-0.76-0.69-1.47-1.32-2.08-2.04c-1.1-1.28-1.75-2.43-1.94-3.37
		c0.62,0.5,1.3,0.95,1.98,1.39c0.57,0.36,1.14,0.73,1.67,1.13c0.28,0.21,0.65,0.55,1.13,0.97c2.96,2.62,9.88,8.76,24.54,14.13
		c2.02,0.72,2.18,0.27,2.28,0c0.08-0.23,0.27-0.74-1.72-1.48c-13.95-5.11-20.8-11.19-23.72-13.79l-0.2-0.18
		c-0.52-0.46-0.92-0.82-1.24-1.06c-0.56-0.43-1.16-0.82-1.75-1.19c-0.73-0.47-1.51-0.97-2.18-1.56c0.3-0.09,0.65-0.12,0.98-0.07
		c0.78,0.12,1.52,0.53,2.31,0.96l0.13,0.07c0.18,0.09,0.35,0.19,0.52,0.28c0.1,0.05,0.2,0.1,0.31,0.15l0.18,0.08
		c0.03,0.03,0.12,0.07,0.22,0.1c3.45,1.64,7.44,2.15,10.97,2.61c3.51,0.45,7.13,0.92,10.29,2.37c5.35,2.45,9.68,8,11.94,15.25
		C275.84,322.13,273.7,323.01,271.55,323.77z M277.63,314.68c-1.5-2.83-3.36-5.29-5.48-7.24c3.44,0.95,6.61,1.97,10.51,3.53
		c1.78,0.7,2.16,0.53,2.29,0.48l0.2-0.09l0.12-0.24c0.2-0.55-0.26-0.94-2.04-1.64c-5.37-2.14-9.45-3.48-15.05-4.91
		c-0.41-0.23-0.82-0.44-1.24-0.63c-3.45-1.58-7.24-2.07-10.9-2.54c-2.95-0.38-5.99-0.77-8.76-1.76c2.26-1.16,5.28-1.13,7.56-1.1
		c1.15,0.01,2.31,0.09,3.45,0.15c2.04,0.13,4.07,0.25,6.11,0.11c2.76-0.19,5.47-0.88,8.04-2.04c2.38-0.4,4.8,1.56,6.62,3.32
		c1.96,1.89,3.42,4.29,4.84,6.6l2.57,4.21C283.7,312.53,280.73,313.81,277.63,314.68z M225.62,293.46
		c-2.83-0.91-7.61-2.72-10.62-3.86h-8.74c4.12,1.02,15.99,5.01,18.69,5.88c2.46,0.81,5.47,1.68,8.43,2.44
		c1.01,0.26,1.93,0.64,2.76,1.13c0.4,0.32,0.69,0.71,0.83,0.96c0.18,0.36,0.21,0.71,0.21,0.73l0.04,0.31
		c0.2,1.41,1.01,2.98,2.45,4.68c0.7,0.79,1.46,1.51,2.21,2.18c0.65,0.56,1.33,1.19,1.9,1.82c1.23,1.37,2.18,3.05,3.09,4.68
		c0.31,0.53,0.59,1.06,0.9,1.58c1.89,3.22,3.93,5.7,6.2,7.57c2.82,2.31,5.98,3.66,9.16,3.88c3.24,0.22,6.43-0.72,9.12-1.67
		c2.35-0.84,4.71-1.82,6.96-2.9c0.2-0.09,0.65-0.3,0.89-0.84c0.2-0.49,0.08-0.94,0.03-1.17c-0.44-1.46-0.98-2.88-1.59-4.25
		c3.25-0.94,6.35-2.29,9.23-4.03c0.23-0.14,0.76-0.47,0.94-1.1c0.17-0.72-0.16-1.27-0.32-1.52l-2.77-4.55
		c-0.19-0.29-0.38-0.58-0.55-0.87c0.89-0.15,1.78-0.25,2.64-0.27c0.35-0.03,0.7-0.25,0.87-0.57c0.19-0.32,0.19-0.72,0-1.06
		c-0.33-0.52-0.62-1.07-0.93-1.62c-1.05-1.9-2.15-3.84-3.71-5.48c-1.41-1.47-3.19-2.53-4.94-2.96c1.29-0.9,2.54-1.62,3.93-1.93
		c0.33-0.07,0.61-0.32,0.73-0.63c0.15-0.32,0.12-0.67-0.07-0.96c-1.38-2.3-3.89-3.91-7.6-4.93c-6.41-1.76-13.32-1.31-19.46,1.28
		c-3.69,1.55-7,3.84-10.18,6.02l-4.53,3.11c-0.3,0.23-0.6,0.42-0.88,0.65c-0.73,0.55-1.63,0.88-2.55,0.91
		c-0.34,0.01-0.67,0.01-1.01,0.04c-1.15,0.1-2.32-0.01-3.46-0.29C231.03,295.1,228.06,294.25,225.62,293.46z"/>
	<g id="XMLID_5_">
		
			<linearGradient id="SVGID_8_" gradientUnits="userSpaceOnUse" x1="-756.4747" y1="-33.844" x2="-699.8351" y2="-33.844" gradientTransform="matrix(-0.2785 -0.8979 0.8979 -0.2785 81.8415 -498.549)">
			<stop  offset="0" style="stop-color:#648095"/>
			<stop  offset="0.9946" style="stop-color:#C0D6EE"/>
		</linearGradient>
		<path class="st8" d="M206.64,151.54c0,0,0.01,0,0.02,0c5.23-1.54,28.68-4.97,51.74,4.43c15.11,6.16,27.84,16.82,43.39,21.81
			c-16.14,4.3-31.57,6.44-51.16-2.3C232.47,167.39,220.75,160.52,206.64,151.54z"/>
	</g>
	<g id="XMLID_1_">
		
			<linearGradient id="SVGID_9_" gradientUnits="userSpaceOnUse" x1="-808.8805" y1="123.5083" x2="-766.9712" y2="123.5083" gradientTransform="matrix(-0.2785 -0.8979 0.8979 -0.2785 81.8415 -498.549)">
			<stop  offset="0" style="stop-color:#648095"/>
			<stop  offset="0.9946" style="stop-color:#C0D6EE"/>
		</linearGradient>
		<path class="st9" d="M376.93,164.81c0,0,0.01,0,0.01,0c3.87-1.14,21.22-3.68,38.28,3.28c11.18,4.56,20.6,12.45,32.1,16.14
			c-11.95,3.18-23.36,4.76-37.85-1.7C396.05,176.53,387.38,171.45,376.93,164.81z"/>
	</g>
	
		<linearGradient id="SVGID_10_" gradientUnits="userSpaceOnUse" x1="79.4503" y1="173.8426" x2="513.1932" y2="173.8426" gradientTransform="matrix(-0.9401 0 0 -0.9401 578.5656 344.1783)">
		<stop  offset="0" style="stop-color:#BF8D5B"/>
		<stop  offset="0.1872" style="stop-color:#967039"/>
		<stop  offset="0.3691" style="stop-color:#C6985B"/>
		<stop  offset="0.5389" style="stop-color:#EDB876"/>
		<stop  offset="0.6275" style="stop-color:#FCC480"/>
		<stop  offset="0.7099" style="stop-color:#EBB674"/>
		<stop  offset="0.8734" style="stop-color:#BD9054"/>
		<stop  offset="1" style="stop-color:#967039"/>
	</linearGradient>
	<line class="st10" x1="502.94" y1="180.75" x2="97.06" y2="180.75"/>
	
		<linearGradient id="SVGID_11_" gradientUnits="userSpaceOnUse" x1="80.1144" y1="167.0505" x2="512.5291" y2="167.0505" gradientTransform="matrix(-0.9401 0 0 -0.9401 578.5656 344.1783)">
		<stop  offset="0" style="stop-color:#BF8D5B"/>
		<stop  offset="0.1872" style="stop-color:#967039"/>
		<stop  offset="0.3691" style="stop-color:#C6985B"/>
		<stop  offset="0.5389" style="stop-color:#EDB876"/>
		<stop  offset="0.6275" style="stop-color:#FCC480"/>
		<stop  offset="0.7099" style="stop-color:#EBB674"/>
		<stop  offset="0.8734" style="stop-color:#BD9054"/>
		<stop  offset="1" style="stop-color:#967039"/>
	</linearGradient>
	<line class="st11" x1="502.94" y1="187.14" x2="97.06" y2="187.14"/>
	<g>
		
			<linearGradient id="SVGID_12_" gradientUnits="userSpaceOnUse" x1="562.9362" y1="443.7735" x2="539.4542" y2="335.715" gradientTransform="matrix(-0.2173 0.9146 0.9146 0.2173 -12.8476 -399.0005)">
			<stop  offset="0" style="stop-color:#BF8D5B"/>
			<stop  offset="0.1872" style="stop-color:#967039"/>
			<stop  offset="0.3691" style="stop-color:#C6985B"/>
			<stop  offset="0.5389" style="stop-color:#EDB876"/>
			<stop  offset="0.6275" style="stop-color:#FCC480"/>
			<stop  offset="0.7099" style="stop-color:#EBB674"/>
			<stop  offset="0.8734" style="stop-color:#BD9054"/>
			<stop  offset="1" style="stop-color:#967039"/>
		</linearGradient>
		<path class="st12" d="M161.34,192.2c9.62-0.66,19.2-0.23,28.76,1c8.05,1.04,16,2.03,24.09,1.6c16.44-0.77,33.46-5.45,47.94-13.29
			c0.1-0.06,6.78-1.61,8.28-2.84h-3.71c-2.07,0.84-5.54,1.03-5.87,1.01c-13.14-0.8-25.52-6.08-38.87-5.89
			c-21.82,0.31-40.57,9.16-60.71,16.65c-0.57,0.26-2.66,1.07-2.48,1.51C158.91,192.39,160.82,192.22,161.34,192.2z"/>
		<path class="st5" d="M192.05,181.2c11.04-3.85,21.73-5.22,33.39-5.25c10.21-0.03,20.02,3.8,30.08,5.14
			c-7.73,1.32-15.54,2.21-23.37,2.54c-9.31,0.43-18.96,0.09-28.22,0.81c-0.95,0.09-2.12,0.68,0.33,0.8
			c17.03,0.78,34.55,0.08,51.6-2.74c-14.04,5.74-28.28,10.16-43.7,10.59c-9.23,0.25-18.2-1.54-27.37-2.44
			c-5.67-0.56-11.37-0.76-17.06-0.61C175.82,187.02,183.93,184.03,192.05,181.2z"/>
	</g>
	<g>
		
			<linearGradient id="SVGID_13_" gradientUnits="userSpaceOnUse" x1="-105.8259" y1="72.2105" x2="-121.1598" y2="1.6472" gradientTransform="matrix(-0.6411 -0.6876 0.6876 -0.6411 152.5603 110.012)">
			<stop  offset="0" style="stop-color:#BF8D5B"/>
			<stop  offset="0.1872" style="stop-color:#967039"/>
			<stop  offset="0.3691" style="stop-color:#C6985B"/>
			<stop  offset="0.5389" style="stop-color:#EDB876"/>
			<stop  offset="0.6275" style="stop-color:#FCC480"/>
			<stop  offset="0.7099" style="stop-color:#EBB674"/>
			<stop  offset="0.8734" style="stop-color:#BD9054"/>
			<stop  offset="1" style="stop-color:#967039"/>
		</linearGradient>
		<path class="st13" d="M182.89,163.19c0.03,0.4,1.68,0.71,2.13,0.83c8.25,1.73,16.24,4.4,24.02,7.72c6.55,2.8,13.01,5.52,19.96,7.1
			c14.04,3.26,29.5,3.39,43.58,0.23c0.1-0.02,0.18-0.05,0.24-0.11c9.29,0.76,18.93,0.63,28.14-0.29h8.53
			c-2.18-1.14-5.58-1.38-7.47-1.89c-4.06-8.18-11-14.81-18.95-19.16c-4.03-2.22-8.36-3.81-12.88-4.76
			c-6.13-1.28-12.45-1.5-18.42-3.69c-0.87-0.33-2.33-0.75-2.47-0.62c-0.17,0.23,1.34,1.49,1.84,1.86
			c8.83,6.69,17.23,14.32,26.53,20.34c5.25,3.41,10.99,5.54,17,6.74c-7.17,0.54-14.39,0.62-21.7,0.15c-0.06-0.06-0.13-0.1-0.21-0.15
			c-11.27-3.72-20.63-11.43-32.24-14.53c-18.5-4.96-36.41-1.95-55.17-0.44C184.8,162.58,182.85,162.77,182.89,163.19z"/>
		<path class="st5" d="M275.97,167.41c-6.52-4.69-12.81-9.72-19.14-14.7c7.44,1.88,15.32,2.02,22.46,5.29
			c8.92,4.09,15.64,10.84,20.9,18.97l-0.14,0.01C291.27,175.67,283.26,172.64,275.97,167.41z"/>
		<path class="st5" d="M213.53,162.07c10.22-0.61,19.57,0.79,29.41,3.54c8.62,2.42,15.99,7.99,24.17,11.52
			c-6.83-0.73-13.63-1.84-20.32-3.44c-7.95-1.86-16.02-4.46-24-6.06c-0.82-0.15-1.95,0.07,0.09,0.75
			c14.18,4.73,29.13,8.31,44.18,10.01c-13.2,1.49-26.26,1.82-39.37-1.5c-7.85-1.99-15-5.64-22.52-8.6
			c-4.65-1.82-9.41-3.35-14.25-4.59C198.46,163.1,206,162.52,213.53,162.07z"/>
	</g>
	<path class="st5" d="M373.05,174.78c2.83,0.92,7.61,2.74,10.62,3.88h8.74c-4.12-1.03-15.99-5.04-18.69-5.91
		c-2.46-0.82-5.47-1.69-8.43-2.46c-1.01-0.26-1.93-0.64-2.76-1.14c-0.4-0.32-0.69-0.71-0.83-0.96c-0.18-0.36-0.21-0.71-0.21-0.74
		l-0.04-0.31c-0.2-1.42-1.01-3-2.45-4.71c-0.7-0.79-1.46-1.51-2.21-2.19c-0.65-0.57-1.33-1.19-1.9-1.83
		c-1.23-1.38-2.18-3.07-3.09-4.7c-0.31-0.53-0.59-1.06-0.9-1.59c-1.89-3.24-3.93-5.73-6.2-7.62c-2.82-2.32-5.98-3.68-9.16-3.9
		c-3.24-0.22-6.43,0.72-9.12,1.67c-2.35,0.84-4.71,1.83-6.96,2.92c-0.2,0.09-0.65,0.3-0.89,0.85c-0.2,0.5-0.08,0.95-0.03,1.17
		c0.44,1.47,0.98,2.9,1.59,4.28c-3.25,0.95-6.35,2.3-9.23,4.05c-0.23,0.14-0.76,0.47-0.94,1.11c-0.17,0.73,0.16,1.27,0.32,1.53
		l2.77,4.58c0.19,0.29,0.38,0.58,0.55,0.88c-0.89,0.15-1.78,0.25-2.64,0.27c-0.35,0.03-0.7,0.25-0.87,0.57
		c-0.19,0.32-0.19,0.73,0,1.06c0.33,0.53,0.62,1.08,0.93,1.63c1.05,1.91,2.15,3.86,3.71,5.51c1.41,1.48,3.19,2.54,4.94,2.97
		c-1.29,0.9-2.54,1.63-3.93,1.94c-0.33,0.07-0.61,0.32-0.73,0.63c-0.15,0.32-0.12,0.67,0.07,0.97c1.38,2.31,3.89,3.93,7.6,4.95
		c6.41,1.77,13.32,1.32,19.46-1.29c3.69-1.56,7-3.86,10.18-6.05l4.53-3.13c0.3-0.23,0.6-0.42,0.88-0.66
		c0.73-0.55,1.63-0.89,2.55-0.91c0.34-0.01,0.67-0.01,1.01-0.04c1.15-0.1,2.32,0.01,3.46,0.3
		C367.64,173.13,370.61,173.98,373.05,174.78z"/>
	
		<linearGradient id="SVGID_14_" gradientUnits="userSpaceOnUse" x1="259.6042" y1="216.1778" x2="229.2422" y2="156.1409" gradientTransform="matrix(-0.9401 0 0 -0.9401 578.5656 344.1783)">
		<stop  offset="0" style="stop-color:#BF8D5B"/>
		<stop  offset="0.1872" style="stop-color:#967039"/>
		<stop  offset="0.3691" style="stop-color:#C6985B"/>
		<stop  offset="0.5389" style="stop-color:#EDB876"/>
		<stop  offset="0.6275" style="stop-color:#FCC480"/>
		<stop  offset="0.7099" style="stop-color:#EBB674"/>
		<stop  offset="0.8734" style="stop-color:#BD9054"/>
		<stop  offset="1" style="stop-color:#967039"/>
	</linearGradient>
	<path class="st14" d="M323.2,182.07c-2.49-0.69-4.3-1.64-5.5-2.89c1.67-0.68,3.12-1.75,4.54-2.79c0.65-0.48,1.23-0.91,1.82-1.3
		c3.09-2.05,6.67-3.28,10.36-3.54c1.9-0.13,3.86-0.01,5.75,0.11c1.25,0.08,2.45,0.15,3.64,0.16c2.81,0.04,7.02,0.09,9.92-2.22
		c0.16,0.08,0.31,0.17,0.47,0.25c0.24,0.13,0.46,0.25,0.68,0.36c-0.99,0.44-2.07,0.76-3.11,1.07c-0.84,0.25-1.61,0.48-2.34,0.75
		c-1.71,0.63-3.32,1.49-4.88,2.33l-0.2,0.11c-0.67,0.36-1.33,0.71-2.01,1.05c-6.38,3.17-12.96,4.23-18.53,2.99
		c-1.85-0.42-2.05-0.28-2.23-0.16l-0.19,0.13l-0.06,0.25c-0.01,0.03-0.01,0.06-0.01,0.1c-0.03,0.3,0.11,0.72,2.14,1.16
		c6.18,1.37,13.17,0.36,19.66-2.87c0.69-0.34,1.38-0.71,2.06-1.08l0.19-0.1c1.51-0.81,3.06-1.64,4.66-2.23
		c0.73-0.27,1.49-0.49,2.24-0.71c1.15-0.34,2.4-0.71,3.59-1.27c-0.09,0.06-0.17,0.12-0.26,0.18l-4.5,3.11
		c-3.12,2.16-6.33,4.38-9.82,5.86C335.57,183.28,329.16,183.71,323.2,182.07z M316.23,171.18c-1.38-1.44-2.4-3.28-3.38-5.07
		l-0.11-0.2c0.68-0.08,1.38-0.19,2.09-0.33c1.13,1.69,2.19,3,3.3,4.08c1.31,1.27,3,2.75,4.98,3.49c-0.07,0.05-0.15,0.1-0.22,0.15
		l-0.39,0.28C320.18,174.22,317.68,172.69,316.23,171.18z M327.12,144.3c2.47-0.89,5.39-1.76,8.24-1.56c2.7,0.2,5.54,1.41,7.97,3.43
		c2.08,1.71,3.95,4.02,5.72,7.04c0.26,0.45,0.52,0.91,0.77,1.36l0.1,0.18c0.97,1.75,1.98,3.55,3.37,5.1
		c0.63,0.7,1.32,1.33,1.99,1.94c0.76,0.69,1.47,1.33,2.08,2.05c1.1,1.29,1.75,2.44,1.94,3.38c-0.62-0.51-1.3-0.95-1.98-1.4
		c-0.57-0.36-1.14-0.74-1.67-1.14c-0.28-0.21-0.65-0.55-1.13-0.98c-2.96-2.63-9.88-8.8-24.54-14.21c-2.02-0.73-2.18-0.27-2.28,0
		c-0.08,0.23-0.27,0.75,1.72,1.49c13.95,5.14,20.8,11.25,23.72,13.86l0.2,0.18c0.52,0.46,0.92,0.82,1.24,1.06
		c0.56,0.43,1.16,0.82,1.75,1.2c0.73,0.47,1.51,0.98,2.18,1.57c-0.3,0.09-0.65,0.12-0.98,0.07c-0.78-0.12-1.52-0.53-2.31-0.97
		l-0.13-0.07c-0.18-0.1-0.35-0.19-0.52-0.28c-0.1-0.05-0.2-0.1-0.31-0.15l-0.18-0.08c-0.03-0.03-0.12-0.07-0.22-0.1
		c-3.45-1.65-7.44-2.16-10.97-2.62c-3.51-0.45-7.13-0.92-10.29-2.38c-5.35-2.46-9.68-8.04-11.94-15.33
		C322.82,145.95,324.97,145.07,327.12,144.3z M321.04,153.44c1.5,2.84,3.36,5.32,5.48,7.28c-3.44-0.96-6.61-1.98-10.51-3.54
		c-1.78-0.71-2.16-0.53-2.29-0.48l-0.2,0.09l-0.12,0.25c-0.2,0.56,0.26,0.95,2.04,1.65c5.37,2.16,9.45,3.5,15.05,4.93
		c0.41,0.23,0.82,0.44,1.24,0.63c3.45,1.59,7.24,2.08,10.9,2.56c2.95,0.38,5.99,0.78,8.76,1.77c-2.26,1.17-5.28,1.13-7.56,1.1
		c-1.15-0.01-2.31-0.09-3.45-0.15c-2.04-0.13-4.07-0.25-6.11-0.11c-2.76,0.19-5.47,0.88-8.04,2.05c-2.38,0.4-4.8-1.57-6.62-3.34
		c-1.96-1.91-3.42-4.31-4.84-6.64l-2.57-4.23C314.96,155.6,317.94,154.32,321.04,153.44z M373.05,174.78
		c2.83,0.92,7.61,2.74,10.62,3.88h8.74c-4.12-1.03-15.99-5.04-18.69-5.91c-2.46-0.82-5.47-1.69-8.43-2.46
		c-1.01-0.26-1.93-0.64-2.76-1.14c-0.4-0.32-0.69-0.71-0.83-0.96c-0.18-0.36-0.21-0.71-0.21-0.74l-0.04-0.31
		c-0.2-1.42-1.01-3-2.45-4.71c-0.7-0.79-1.46-1.51-2.21-2.19c-0.65-0.57-1.33-1.19-1.9-1.83c-1.23-1.38-2.18-3.07-3.09-4.7
		c-0.31-0.53-0.59-1.06-0.9-1.59c-1.89-3.24-3.93-5.73-6.2-7.62c-2.82-2.32-5.98-3.68-9.16-3.9c-3.24-0.22-6.43,0.72-9.12,1.67
		c-2.35,0.84-4.71,1.83-6.96,2.92c-0.2,0.09-0.65,0.3-0.89,0.85c-0.2,0.5-0.08,0.95-0.03,1.17c0.44,1.47,0.98,2.9,1.59,4.28
		c-3.25,0.95-6.35,2.3-9.23,4.05c-0.23,0.14-0.76,0.47-0.94,1.11c-0.17,0.73,0.16,1.27,0.32,1.53l2.77,4.58
		c0.19,0.29,0.38,0.58,0.55,0.88c-0.89,0.15-1.78,0.25-2.64,0.27c-0.35,0.03-0.7,0.25-0.87,0.57c-0.19,0.32-0.19,0.73,0,1.06
		c0.33,0.53,0.62,1.08,0.93,1.63c1.05,1.91,2.15,3.86,3.71,5.51c1.41,1.48,3.19,2.54,4.94,2.97c-1.29,0.9-2.54,1.63-3.93,1.94
		c-0.33,0.07-0.61,0.32-0.73,0.63c-0.15,0.32-0.12,0.67,0.07,0.97c1.38,2.31,3.89,3.93,7.6,4.95c6.41,1.77,13.32,1.32,19.46-1.29
		c3.69-1.56,7-3.86,10.18-6.05l4.53-3.13c0.3-0.23,0.6-0.42,0.88-0.66c0.73-0.55,1.63-0.89,2.55-0.91c0.34-0.01,0.67-0.01,1.01-0.04
		c1.15-0.1,2.32,0.01,3.46,0.3C367.64,173.13,370.61,173.98,373.05,174.78z"/>
	<text transform="matrix(1 0 0 1 122.5957 254.4996)" class="st15 st16 st17">Anne &amp; Caio</text>
</g>
<text transform="matrix(1 0 0 1 285.4781 -15.0338)" class="st15 st16" style="font-size:25.9409px;">29.05.2022</text>
</svg>
