<?xml version="1.0" standalone="no"?>
<!DOCTYPE svg PUBLIC "-//W3C//DTD SVG 20010904//EN"
 "http://www.w3.org/TR/2001/REC-SVG-20010904/DTD/svg10.dtd">
<svg version="1.0" xmlns="http://www.w3.org/2000/svg"
 width="288.000000pt" height="385.000000pt" viewBox="0 0 288.000000 385.000000"
 preserveAspectRatio="xMidYMid meet">

<g transform="translate(0.000000,385.000000) scale(0.100000,-0.100000)"
fill="#000000" stroke="none">
<path d="M1890 3753 c-141 -22 -321 -90 -423 -160 -38 -25 -98 -79 -134 -118
-62 -69 -68 -73 -119 -79 -62 -7 -180 -48 -244 -84 -94 -53 -200 -154 -255
-242 -26 -41 -165 -314 -165 -323 0 -15 -137 -288 -237 -472 -167 -308 -222
-426 -265 -573 -31 -104 -33 -328 -4 -412 82 -240 229 -420 734 -899 89 -85
162 -159 162 -165 -2 -34 -208 -156 -263 -156 -59 0 -87 50 -67 120 17 61 13
86 -21 113 -27 21 -30 27 -20 45 14 26 14 77 0 103 -13 25 -57 43 -73 30 -8
-7 -10 5 -8 43 4 55 -9 76 -55 90 -19 6 -26 0 -45 -38 l-23 -45 -34 40 -34 41
28 -4 c18 -2 32 3 38 13 8 13 1 30 -36 80 -26 34 -54 82 -63 106 -12 30 -22
43 -36 43 -15 0 -18 -5 -13 -23 14 -43 43 -102 69 -136 l26 -34 -30 -19 c-17
-10 -30 -22 -30 -28 0 -6 20 -32 44 -58 24 -26 50 -60 58 -77 l16 -29 31 62
c17 34 36 62 41 62 15 0 12 -70 -5 -126 -17 -55 -20 -104 -6 -104 5 0 26 23
46 50 40 55 49 59 65 31 8 -16 2 -35 -30 -97 -24 -47 -38 -85 -34 -96 5 -16
10 -15 50 14 24 17 47 28 50 25 4 -4 2 -32 -5 -64 -28 -147 59 -212 198 -148
63 30 164 100 204 143 l28 29 -287 279 c-408 397 -530 545 -613 743 -36 85
-36 87 -36 231 0 132 3 153 29 235 40 128 110 279 230 499 121 224 203 386
293 580 119 261 195 366 324 452 79 52 190 99 261 109 l48 7 -15 -42 c-22 -64
-19 -132 11 -207 15 -36 22 -68 17 -72 -5 -3 -29 -20 -53 -37 -25 -17 -88 -55
-140 -84 -113 -62 -146 -90 -173 -150 -38 -81 -23 -228 38 -372 6 -15 2 -18
-22 -18 -91 0 -193 -75 -241 -178 -23 -49 -27 -70 -27 -147 0 -80 4 -97 32
-157 38 -81 75 -135 138 -206 l47 -52 -51 -59 c-28 -33 -85 -85 -126 -116 -41
-32 -75 -61 -75 -66 0 -23 59 -168 111 -272 107 -218 287 -462 440 -599 38
-35 74 -65 80 -66 20 -8 142 83 212 158 108 115 179 261 223 460 12 55 19 149
23 350 6 263 7 278 31 334 14 32 30 58 35 58 6 -1 15 -22 21 -49 l10 -48 32
67 c18 36 52 88 77 115 l44 48 1 -32 c0 -26 4 -33 20 -33 17 0 20 7 20 38 0
38 -23 72 -48 72 -12 0 -122 -126 -122 -141 0 -20 -18 -7 -30 21 -7 17 -15 30
-19 30 -12 0 -69 -105 -90 -166 -18 -55 -20 -84 -20 -285 1 -170 -3 -248 -16
-323 -28 -165 -81 -303 -158 -415 -67 -99 -209 -218 -246 -206 -30 9 -202 193
-285 304 -122 164 -215 331 -280 503 l-25 67 48 35 c26 20 80 69 118 110 l71
74 145 -147 c169 -170 199 -205 262 -306 60 -95 97 -201 103 -293 2 -39 8 -72
11 -72 13 0 53 81 67 133 34 127 6 249 -121 537 -100 227 -130 367 -100 481
25 101 73 139 177 139 131 1 198 40 198 118 l1 37 22 -55 c19 -48 28 -58 72
-80 68 -34 159 -32 342 5 155 31 188 29 209 -12 11 -22 12 -22 105 33 117 69
209 143 284 228 61 70 96 84 129 50 24 -23 21 -136 -5 -220 -31 -102 -138
-300 -208 -390 l-19 -24 -28 47 c-15 27 -45 69 -66 95 -44 53 -150 128 -180
128 -52 0 -218 -162 -288 -279 -85 -143 -114 -272 -140 -631 -22 -298 -51
-463 -105 -592 -38 -90 -39 -94 -20 -102 13 -4 23 8 45 58 61 134 89 276 115
586 38 457 56 539 159 691 42 63 157 182 204 211 l32 20 44 -26 c62 -36 136
-122 182 -210 l40 -77 71 103 c150 218 213 367 221 515 4 92 4 92 -26 123 -24
23 -39 30 -71 30 -38 0 -47 -6 -153 -112 -78 -78 -140 -130 -200 -166 -82 -50
-88 -53 -110 -38 -44 28 -89 28 -218 2 -169 -34 -235 -40 -295 -24 -60 16 -95
60 -95 120 0 34 -7 45 -60 96 -62 60 -70 83 -45 116 8 11 15 23 15 27 0 4 -29
10 -64 14 -34 4 -69 11 -76 15 -8 5 -15 34 -18 69 -4 53 -7 61 -24 61 -19 0
-20 -4 -13 -67 8 -80 25 -102 84 -110 38 -5 41 -8 41 -36 0 -34 30 -88 65
-115 24 -19 24 -21 12 -81 -19 -92 -35 -104 -154 -111 -134 -9 -171 -30 -212
-120 -16 -35 -21 -66 -21 -140 0 -143 24 -230 120 -440 95 -207 134 -362 115
-457 l-7 -38 -23 65 c-59 174 -134 279 -352 501 -85 86 -150 159 -145 163 22
13 86 137 115 221 28 81 31 102 31 210 0 122 1 119 -49 237 -6 15 -3 16 22 9
15 -5 52 -20 81 -35 96 -48 236 -106 293 -121 78 -21 99 -19 99 5 0 15 -7 20
-26 20 -40 0 -163 45 -303 111 -71 33 -145 63 -164 66 -37 6 -44 18 -88 158
-22 68 -17 183 9 232 22 43 31 49 217 156 51 29 118 79 154 115 52 50 70 62
96 62 48 0 73 -27 91 -95 26 -104 56 -143 174 -228 53 -39 82 -87 100 -164
l12 -55 40 6 c76 12 108 51 108 132 0 93 55 142 141 123 48 -11 88 -35 164
-98 121 -101 266 -135 394 -92 91 31 114 48 107 80 -15 67 -46 288 -56 391
-19 206 -55 315 -142 428 -78 101 -212 189 -329 217 -59 14 -252 19 -319 8z
m315 -48 c93 -25 173 -73 255 -155 118 -118 158 -216 180 -450 12 -127 45
-356 55 -381 12 -32 -111 -73 -203 -67 -83 5 -154 36 -242 108 -116 94 -216
123 -291 84 -39 -20 -68 -84 -69 -150 0 -53 -14 -75 -56 -88 -17 -5 -22 0 -33
43 -19 74 -63 136 -126 176 -30 19 -64 45 -76 58 -26 26 -69 115 -69 140 0 34
-32 88 -61 102 -45 24 -103 19 -138 -11 l-31 -26 -20 44 c-30 67 -27 142 11
217 37 73 140 180 221 229 78 46 214 100 310 122 107 24 300 26 383 5z m-1221
-1413 c57 -114 60 -265 9 -414 -28 -81 -94 -198 -111 -198 -18 0 -126 148
-161 220 -33 68 -36 83 -36 160 0 72 4 92 27 135 27 51 62 89 110 119 26 17
115 36 131 29 4 -3 18 -25 31 -51z"/>
<path d="M1321 2880 c-46 -21 -51 -46 -9 -43 21 1 27 -5 35 -30 6 -23 24 -42
61 -66 31 -20 52 -41 52 -52 0 -10 10 -24 22 -30 22 -12 94 -16 104 -7 8 9 -8
38 -17 32 -17 -10 -67 7 -72 25 -2 10 -30 37 -61 60 -48 35 -56 46 -56 74 0
53 -10 58 -59 37z"/>
</g>
</svg>
